
<svg xmlns="http://www.w3.org/2000/svg" viewBox="0 0 600 800" width="600" height="800">
  <style>
    .region:hover { fill: orange; cursor: pointer; }
    .region { fill: #ccc; stroke: #333; stroke-width: 1px; }
    text { font-size: 12px; pointer-events: none; }
  </style>
  <rect class="region" data-region="基隆市" x="50" y="50" width="80" height="30" />
  <text x="55" y="70">基隆市</text>
  <rect class="region" data-region="台北市" x="50" y="85" width="80" height="30" />
  <text x="55" y="105">台北市</text>
  <rect class="region" data-region="新北市" x="50" y="120" width="80" height="30" />
  <text x="55" y="140">新北市</text>
  <rect class="region" data-region="桃園市" x="50" y="155" width="80" height="30" />
  <text x="55" y="175">桃園市</text>
  <rect class="region" data-region="新竹市" x="50" y="190" width="80" height="30" />
  <text x="55" y="210">新竹市</text>
  <rect class="region" data-region="新竹縣" x="50" y="225" width="80" height="30" />
  <text x="55" y="245">新竹縣</text>
  <rect class="region" data-region="苗栗縣" x="50" y="260" width="80" height="30" />
  <text x="55" y="280">苗栗縣</text>
  <rect class="region" data-region="台中市" x="50" y="295" width="80" height="30" />
  <text x="55" y="315">台中市</text>
  <rect class="region" data-region="彰化縣" x="50" y="330" width="80" height="30" />
  <text x="55" y="350">彰化縣</text>
  <rect class="region" data-region="南投縣" x="50" y="365" width="80" height="30" />
  <text x="55" y="385">南投縣</text>
  <rect class="region" data-region="雲林縣" x="150" y="50" width="80" height="30" />
  <text x="155" y="70">雲林縣</text>
  <rect class="region" data-region="嘉義市" x="150" y="85" width="80" height="30" />
  <text x="155" y="105">嘉義市</text>
  <rect class="region" data-region="嘉義縣" x="150" y="120" width="80" height="30" />
  <text x="155" y="140">嘉義縣</text>
  <rect class="region" data-region="台南市" x="150" y="155" width="80" height="30" />
  <text x="155" y="175">台南市</text>
  <rect class="region" data-region="高雄市" x="150" y="190" width="80" height="30" />
  <text x="155" y="210">高雄市</text>
  <rect class="region" data-region="屏東縣" x="150" y="225" width="80" height="30" />
  <text x="155" y="245">屏東縣</text>
  <rect class="region" data-region="宜蘭縣" x="150" y="260" width="80" height="30" />
  <text x="155" y="280">宜蘭縣</text>
  <rect class="region" data-region="花蓮縣" x="150" y="295" width="80" height="30" />
  <text x="155" y="315">花蓮縣</text>
  <rect class="region" data-region="台東縣" x="150" y="330" width="80" height="30" />
  <text x="155" y="350">台東縣</text>
  <rect class="region" data-region="澎湖縣" x="150" y="365" width="80" height="30" />
  <text x="155" y="385">澎湖縣</text>
  <rect class="region" data-region="金門縣" x="250" y="50" width="80" height="30" />
  <text x="255" y="70">金門縣</text>
  <rect class="region" data-region="連江縣" x="250" y="85" width="80" height="30" />
  <text x="255" y="105">連江縣</text>
</svg>
